<svg xmlns="http://www.w3.org/2000/svg" xmlns:xlink="http://www.w3.org/1999/xlink" width="683px" height="683px" viewBox="0 0 683 683" version="1.1">
<g id="surface1">
<path style=" stroke:none;fill-rule:nonzero;fill:rgb(84.705882%,6.666667%,6.666667%);fill-opacity:1;" d="M 613.632812 218.773438 L 587.621094 219.441406 L 500.511719 328.160156 C 452.621094 387.921875 411 440.082031 407.933594 443.949219 C 401.796875 451.820312 400.863281 457.421875 404.996094 461.558594 C 407.265625 463.828125 410.867188 464.09375 448.351562 465.027344 C 478.5 465.695312 490.238281 465.5625 493.707031 464.359375 C 497.441406 463.027344 512.917969 444.484375 588.289062 350.171875 C 637.777344 288.140625 679.398438 235.847656 680.597656 233.847656 C 683.933594 228.644531 683.535156 225.84375 679.132812 221.308594 L 675.261719 217.4375 L 657.386719 217.707031 C 647.648438 217.839844 627.90625 218.375 613.632812 218.773438 Z M 613.632812 218.773438 "/>
<path style=" stroke:none;fill-rule:nonzero;fill:rgb(84.705882%,6.666667%,6.666667%);fill-opacity:1;" d="M 250.121094 221.441406 C 207.167969 229.3125 170.484375 248.519531 140.46875 278.804688 C 126.460938 292.941406 1.734375 448.484375 0.535156 453.289062 C -0.132812 455.421875 0.535156 457.691406 2.269531 459.957031 L 4.9375 463.558594 L 95.378906 463.558594 L 146.203125 400.195312 C 189.691406 345.902344 198.496094 335.496094 208.101562 327.894531 C 221.042969 317.488281 238.78125 308.148438 254.125 303.882812 C 264.664062 300.945312 266.261719 300.8125 367.113281 300.148438 C 455.6875 299.613281 469.695312 299.210938 471.429688 297.476562 C 472.496094 296.410156 484.769531 281.203125 498.777344 263.59375 C 525.722656 229.84375 527.058594 227.578125 521.585938 221.707031 L 518.785156 218.773438 L 391.125 218.90625 C 273.46875 219.039062 262.394531 219.171875 250.121094 221.441406 Z M 250.121094 221.441406 "/>
<path style=" stroke:none;fill-rule:nonzero;fill:rgb(84.705882%,6.666667%,6.666667%);fill-opacity:1;" d="M 273.199219 342.835938 C 255.324219 345.902344 239.449219 354.171875 227.175781 366.980469 C 223.308594 370.980469 206.367188 391.523438 189.558594 412.734375 C 157.011719 453.421875 155.941406 455.289062 161.414062 461.292969 C 164.214844 464.226562 164.613281 464.226562 208.636719 464.226562 L 253.191406 464.226562 L 269.066406 444.21875 L 284.804688 424.339844 L 325.492188 424.207031 C 355.238281 424.207031 367.113281 423.671875 369.515625 422.472656 C 372.980469 420.738281 423.671875 358.574219 425.007812 354.441406 C 426.207031 350.703125 422.875 344.167969 419.269531 342.699219 C 415.269531 341.234375 282.136719 341.367188 273.199219 342.835938 Z M 273.199219 342.835938 "/>
</g>
</svg>